<?xml version="1.0" encoding="UTF-8"?>
<!--Generator: Apple Native CoreSVG 326-->
<!DOCTYPE svg
PUBLIC "-//W3C//DTD SVG 1.1//EN"
       "http://www.w3.org/Graphics/SVG/1.1/DTD/svg11.dtd">
<svg version="1.1" xmlns="http://www.w3.org/2000/svg" xmlns:xlink="http://www.w3.org/1999/xlink" viewBox="0 0 28.8078 23.918">
 <g>
  <rect height="23.918" opacity="0" width="28.8078" x="0" y="0"/>
  <path d="M14.2281 0C8.46252 0 3.56408 4.20703 2.49767 9.69141L0.833612 9.69141C-0.0101376 9.69141-0.221075 10.2656 0.235956 10.9219L2.86096 14.6484C3.24767 15.1875 3.81017 15.1758 4.18517 14.6484L6.81017 10.9102C7.25549 10.2656 7.04455 9.69141 6.21252 9.69141L4.52502 9.69141C5.53283 5.26172 9.47033 2.00391 14.2281 2.00391C17.568 2.01562 20.4977 3.62109 22.2906 6.11719C22.6422 6.59766 23.2047 6.75 23.6852 6.44531C24.1656 6.16406 24.2945 5.51953 23.8961 5.00391C21.693 1.99219 18.1774 0 14.2281 0ZM14.2281 23.9062C19.9938 23.9062 24.8922 19.6875 25.9586 14.2148L27.611 14.2148C28.4547 14.2148 28.6774 13.6406 28.2086 12.9844L25.5953 9.25781C25.2086 8.71875 24.6461 8.73047 24.2711 9.25781L21.6461 12.9961C21.1891 13.6406 21.4117 14.2148 22.2438 14.2148L23.943 14.2148C22.9235 18.6328 18.9742 21.9141 14.2281 21.9141C10.8883 21.9023 7.95861 20.2852 6.16564 17.7891C5.80236 17.3086 5.25158 17.1562 4.75939 17.4492C4.29064 17.7422 4.16174 18.3867 4.56017 18.9023C6.7633 21.9141 10.2789 23.9062 14.2281 23.9062Z" fill="white" fill-opacity="0.85"/>
  <path d="M14.2281 5.09766C13.6891 5.09766 13.2555 5.51953 13.2555 6.05859L13.2555 12.6797C13.2555 12.9609 13.3492 13.1953 13.5485 13.4648L16.3844 17.2031C16.7945 17.7422 17.3688 17.8242 17.861 17.4844C18.2945 17.1797 18.3414 16.5938 17.9781 16.0898L14.1227 10.875L15.1891 14.1445L15.1891 6.05859C15.1891 5.51953 14.7555 5.09766 14.2281 5.09766Z" fill="white" fill-opacity="0.85"/>
 </g>
</svg>
