<svg width="240" height="240" viewBox="0 0 240 240" xmlns="http://www.w3.org/2000/svg" role="img" aria-labelledby="title desc">
  <title id="title">Cartoon Trashcan</title>
  <desc id="desc">A rounded, cartoon-style trashcan with lid, soft edges, and moderate shading.</desc>
  <g transform="translate(120,0) scale(0.85,1) translate(-120,0)">

  <!-- Palette (base hues):
       1) Dark outline: #2D3A45
       2) Steel body:   #7FA4B8
       (Highlights/shadows use tints/shades of these) -->

  <!-- Soft drop shadow -->
  <defs>
    <filter id="softShadow" x="-20%" y="-20%" width="140%" height="160%">
      <feDropShadow dx="0" dy="6" stdDeviation="6" flood-color="#000000" flood-opacity="0.25"/>
    </filter>

    <!-- Body gradient (vertical steel look) -->
    <linearGradient id="bodyGrad" x1="0" y1="0" x2="0" y2="1">
      <stop offset="0%"  stop-color="#90B2C5"/>
      <stop offset="55%" stop-color="#7FA4B8"/>
      <stop offset="100%" stop-color="#6E93A6"/>
    </linearGradient>

    <!-- Lid gradient -->
    <linearGradient id="lidGrad" x1="0" y1="0" x2="0" y2="1">
      <stop offset="0%"  stop-color="#9CBBD0"/>
      <stop offset="100%" stop-color="#769BB0"/>
    </linearGradient>

    <!-- Highlight sheen (subtle radial) -->
    <radialGradient id="sheen" cx="35%" cy="25%" r="50%">
      <stop offset="0%"   stop-color="#FFFFFF" stop-opacity="0.35"/>
      <stop offset="60%"  stop-color="#FFFFFF" stop-opacity="0.10"/>
      <stop offset="100%" stop-color="#FFFFFF" stop-opacity="0"/>
    </radialGradient>

    <!-- Inner shadow at rim -->
    <linearGradient id="rimShadow" x1="0" y1="0" x2="0" y2="1">
      <stop offset="0%"   stop-color="#2D3A45" stop-opacity="0.30"/>
      <stop offset="100%" stop-color="#2D3A45" stop-opacity="0"/>
    </linearGradient>
  </defs>

  <g filter="url(#softShadow)" stroke="#2D3A45" stroke-width="3" stroke-linejoin="round" stroke-linecap="round">

    <!-- Lid -->
    <g>
      <!-- Lid top (slight perspective) -->
      <ellipse cx="120" cy="58" rx="68" ry="18" fill="url(#lidGrad)"/>
      <!-- Lid rim -->
      <ellipse cx="120" cy="62" rx="72" ry="20" fill="none"/>
      <!-- Handle -->
      <path d="M100,46 q20,-16 40,0" fill="none"/>
      <path d="M110,43 q10,-8 20,0" fill="none"/>
    </g>

    <!-- Can body (rounded tub) -->
    <g>
      <!-- Outer silhouette -->
      <path d="M48,70
               q-4,8 -4,16
               v70
               q0,22 14,34
               q26,22 62,22
               q36,0 62,-22
               q14,-12 14,-34
               v-70
               q0,-8 -4,-16
               c-16,10 -44,16 -72,16
               c-28,0 -56,-6 -72,-16z"
            fill="url(#bodyGrad)"/>

      <!-- Top rim (inside ellipse) -->
      <ellipse cx="120" cy="86" rx="76" ry="20" fill="url(#rimShadow)"/>

      <!-- Vertical ribs (cartoon grooves) -->
      <path d="M84,98 v84" opacity="0.35"/>
      <path d="M104,98 v92" opacity="0.35"/>
      <path d="M136,98 v92" opacity="0.35"/>
      <path d="M156,98 v84" opacity="0.35"/>

      <!-- Side handles -->
      <path d="M34,118 q-8,6 -8,14 t8,14" fill="none"/>
      <path d="M206,118 q8,6 8,14 t-8,14" fill="none"/>
    </g>

    <!-- Sheen highlight -->
    <ellipse cx="100" cy="110" rx="58" ry="42" fill="url(#sheen)" stroke="none"/>

    <!-- Ground shadow (separate so outline doesn't trace it) -->
  </g>

  <!-- Ground shadow -->
  <ellipse cx="120" cy="206" rx="70" ry="12" fill="#000000" opacity="0.12"/>
  </g>
</svg>